# xmcd
#
# Track frame offsets: 
#        150
#        10692
#        26075
#        44379
#        66034
#        81464
#        109266
#        130914
#        156103
#        180730
#        198545
#        225620
#        236825
#        259579
#        284022
#
# Disc length: 4079 seconds
#
# Revision: 2
# Processed by: cddbd v1.5.2PL0 Copyright (c) Steve Scherf et al.
# Submitted via: ExactAudioCopy v0.99pb4
#
DISCID=d40fed0f
DTITLE=Goodie Mob - Still Standing
DYEAR=1998
DGENRE=Rap
TTITLE0=The Experience
TTITLE1=Black Ice (feat. OutKast)
TTITLE2=Fly Away
TTITLE3=The Damn (feat. Cool Breeze)
TTITLE4=They Don't Dance No Mo'
TTITLE5=Beautiful Skin
TTITLE6=Gutta Butta
TTITLE7=Ghetto-ology (feat. Chiefton)
TTITLE8=Distant Wilderness
TTITLE9=Greeny Green (feat. Witchdoctor)
TTITLE10=I Refuse Limitation (feat. Backbone)
TTITLE11=See You When I See You
TTITLE12=Inshallah
TTITLE13=Just About Over
TTITLE14=Still Standing
EXTD=
EXTT0=
EXTT1=
EXTT2=
EXTT3=
EXTT4=
EXTT5=
EXTT6=
EXTT7=
EXTT8=
EXTT9=
EXTT10=
EXTT11=
EXTT12=
EXTT13=
EXTT14=
PLAYORDER=
